<svg width="47" height="44" viewBox="0 0 47 44" fill="none" xmlns="http://www.w3.org/2000/svg">
<path d="M33.9988 5.258V38.258C33.9988 41.932 37.0995 44 40.4994 44C43.6001 44 47 42.262 47 38.258V5.5C47 2.112 43.8993 0 40.4994 0C37.0995 0 33.9988 2.332 33.9988 5.258ZM16.9994 22V38.258C16.9994 41.954 20.1545 44 23.5 44C26.6007 44 30.0006 42.262 30.0006 38.258V22.242C30.0006 18.854 26.8999 16.742 23.5 16.742C20.1001 16.742 16.9994 19.074 16.9994 22ZM6.50058 33.506C10.0909 33.506 13.0012 35.86 13.0012 38.742C13.0012 40.1365 12.3163 41.4739 11.0972 42.46C9.87809 43.446 8.22464 44 6.50058 44C4.77652 44 3.12307 43.446 1.90398 42.46C0.684881 41.4739 0 40.1365 0 38.742C0 35.86 2.9103 33.506 6.50058 33.506Z" fill="#F79B72"/>
</svg>
