<svg width="47" height="47" viewBox="0 0 47 47" fill="none" xmlns="http://www.w3.org/2000/svg">
<path d="M24.8937 45.7445L24.8678 45.749L24.701 45.828L24.654 45.8371L24.6211 45.828L24.4542 45.749C24.4291 45.7415 24.4103 45.7452 24.3978 45.7603L24.3884 45.7829L24.3485 46.7493L24.3602 46.7945L24.3837 46.8239L24.6281 46.991L24.6634 47L24.6916 46.991L24.936 46.8239L24.9642 46.7877L24.9736 46.7493L24.9336 45.7851C24.9273 45.761 24.914 45.7475 24.8937 45.7445ZM25.5164 45.4893L25.4859 45.4938L25.0511 45.7038L25.0276 45.7264L25.0206 45.7513L25.0629 46.7222L25.0746 46.7493L25.0934 46.7651L25.5658 46.9752C25.5955 46.9827 25.6182 46.9767 25.6339 46.9571L25.6433 46.9255L25.5634 45.539C25.5556 45.5119 25.5399 45.4953 25.5164 45.4893ZM23.8362 45.4938C23.8258 45.4878 23.8134 45.4859 23.8016 45.4884C23.7898 45.4909 23.7794 45.4977 23.7727 45.5074L23.7586 45.539L23.6787 46.9255C23.6803 46.9526 23.6936 46.9706 23.7187 46.9797L23.7539 46.9752L24.2263 46.7651L24.2498 46.7471L24.2592 46.7222L24.2991 45.7513L24.2921 45.7242L24.2686 45.7016L23.8362 45.4938Z" fill="#F79B72"/>
<path d="M9.45405 3.52489C9.43796 3.06752 9.51786 2.61172 9.68897 2.18465C9.86008 1.75758 10.1189 1.36797 10.45 1.03905C10.7812 0.710131 11.1778 0.448624 11.6163 0.270113C12.0549 0.0916014 12.5263 -0.00026054 13.0025 5.55011e-07H24.675C26.602 5.55011e-07 28.1765 1.4768 28.2141 3.33295C28.2963 7.32527 28.8439 21.5558 32.3971 36.1296H34.7471C32.4887 26.8623 31.4453 17.7351 30.9636 11.2905H33.9199C36.049 11.2905 37.5742 13.036 37.5154 14.8922C37.4355 17.5138 37.6564 24.9046 41.6208 36.1296H44.65C45.2733 36.1296 45.871 36.3675 46.3117 36.7909C46.7524 37.2144 47 37.7888 47 38.3876C47 38.9865 46.7524 39.5609 46.3117 39.9844C45.871 40.4078 45.2733 40.6457 44.65 40.6457H2.35C1.72674 40.6457 1.12901 40.4078 0.688299 39.9844C0.247588 39.5609 0 38.9865 0 38.3876C0 37.7888 0.247588 37.2144 0.688299 36.7909C1.12901 36.3675 1.72674 36.1296 2.35 36.1296H5.30395C9.6632 21.7139 9.588 7.5985 9.45405 3.52489Z" fill="#F79B72"/>
</svg>
